<svg width="71" height="40" viewBox="0 0 71 40" fill="none" xmlns="http://www.w3.org/2000/svg">
<path d="M47.2566 0.738525C46.3713 0.738525 45.5551 1.14319 44.8807 1.81757L14.6202 31.9708C13.728 32.863 12.8323 32.8042 12.1337 31.7563L7.26779 24.5146C6.20953 22.9272 4.09997 22.4811 2.51604 23.5428C0.928665 24.601 0.482546 26.7071 1.5408 28.298L6.4032 35.5363C9.52263 40.2189 15.6162 40.8137 19.5899 36.8366L49.7432 6.68338C51.0919 5.33118 51.0919 3.16978 49.7432 1.81757C49.0688 1.14319 48.142 0.738525 47.2566 0.738525ZM66.7098 0.738525C65.8245 0.738525 64.8977 1.03596 64.2233 1.71034C64.2233 1.71034 28.4433 37.3968 28.0179 37.7012C31.2964 40.1116 35.7611 40.0148 38.9358 36.8366L69.1963 6.68338C70.5451 5.33118 70.5451 3.06255 69.1963 1.71034C68.522 1.03596 67.5952 0.738525 66.7098 0.738525Z" fill="#0071BB"/>
<path d="M47.2566 0.738525C46.3713 0.738525 45.5551 1.14319 44.8807 1.81757L14.6202 31.9708C13.728 32.863 12.8323 32.8042 12.1337 31.7563L7.26779 24.5146C6.20953 22.9272 4.09997 22.4811 2.51604 23.5428C0.928665 24.601 0.482546 26.7071 1.5408 28.298L6.4032 35.5363C9.52263 40.2189 15.6162 40.8137 19.5899 36.8366L49.7432 6.68338C51.0919 5.33118 51.0919 3.16978 49.7432 1.81757C49.0688 1.14319 48.142 0.738525 47.2566 0.738525ZM66.7098 0.738525C65.8245 0.738525 64.8977 1.03596 64.2233 1.71034C64.2233 1.71034 28.4433 37.3968 28.0179 37.7012C31.2964 40.1116 35.7611 40.0148 38.9358 36.8366L69.1963 6.68338C70.5451 5.33118 70.5451 3.06255 69.1963 1.71034C68.522 1.03596 67.5952 0.738525 66.7098 0.738525Z" stroke="#F0F0F0"/>
</svg>
