<svg width="34" height="33" viewBox="0 0 34 33" fill="none" xmlns="http://www.w3.org/2000/svg">
<g clip-path="url(#clip0_328_7116)">
<path d="M17 0C7.61124 0 0 7.38738 0 16.5C0 24.2378 5.48896 30.7309 12.8935 32.5142V21.5424H9.38808V16.5H12.8935V14.3273C12.8935 8.71134 15.5122 6.1083 21.1929 6.1083C22.27 6.1083 24.1284 6.31356 24.8887 6.51816V11.0887C24.4875 11.0477 23.7905 11.0273 22.9248 11.0273C20.1375 11.0273 19.0604 12.0523 19.0604 14.7167V16.5H24.6133L23.6592 21.5424H19.0604V32.8792C27.4781 31.8925 34.0007 24.9361 34.0007 16.5C34 7.38738 26.3888 0 17 0Z" fill="white"/>
</g>
<defs>
<clipPath id="clip0_328_7116">
<rect width="34" height="33" fill="white"/>
</clipPath>
</defs>
</svg>
