<svg width="24" height="24" viewBox="0 0 24 24" fill="none" xmlns="http://www.w3.org/2000/svg">
<path d="M11.9989 2.01411C6.4761 2.01411 1.9989 6.49111 1.9989 12.0141C1.9989 17.5371 6.4761 22.0141 11.9989 22.0141C17.5217 22.0141 21.9989 17.5371 21.9989 12.0141C21.9989 6.49111 17.5217 2.01411 11.9989 2.01411ZM11.9989 4.01411C16.4172 4.01411 19.9989 7.59611 19.9989 12.0141C19.9989 16.4321 16.4172 20.0141 11.9989 20.0141C7.5806 20.0141 3.9989 16.4321 3.9989 12.0141C3.9989 7.59611 7.5806 4.01411 11.9989 4.01411ZM11.9989 7.01411C11.4466 7.01411 10.9989 7.46211 10.9989 8.01411C10.9989 8.56611 11.4466 9.01411 11.9989 9.01411C12.5512 9.01411 12.9989 8.56611 12.9989 8.01411C12.9989 7.46211 12.5512 7.01411 11.9989 7.01411ZM11.9989 10.0141C11.4466 10.0141 10.9989 10.4621 10.9989 11.0141V16.0141C10.9989 16.5661 11.4466 17.0141 11.9989 17.0141C12.5512 17.0141 12.9989 16.5661 12.9989 16.0141V11.0141C12.9989 10.4621 12.5512 10.0141 11.9989 10.0141Z" fill="black"/>
</svg>
