<svg width="34" height="33" viewBox="0 0 34 33" fill="none" xmlns="http://www.w3.org/2000/svg">
<g clip-path="url(#clip0_328_7110)">
<path d="M17 2.97129C21.5422 2.97129 22.0801 2.99062 23.8664 3.06797C25.5266 3.13887 26.423 3.40957 27.0207 3.63516C27.8109 3.93164 28.382 4.29258 28.973 4.86621C29.5707 5.44629 29.9359 5.99414 30.2414 6.76113C30.4738 7.34121 30.7527 8.21777 30.8258 9.82266C30.9055 11.5629 30.9254 12.085 30.9254 16.4871C30.9254 20.8957 30.9055 21.4178 30.8258 23.1516C30.7527 24.7629 30.4738 25.633 30.2414 26.2131C29.9359 26.9801 29.5641 27.5344 28.973 28.108C28.3754 28.6881 27.8109 29.0426 27.0207 29.3391C26.423 29.5647 25.5199 29.8354 23.8664 29.9062C22.0734 29.9836 21.5355 30.0029 17 30.0029C12.4578 30.0029 11.9199 29.9836 10.1336 29.9062C8.47344 29.8354 7.57695 29.5647 6.9793 29.3391C6.18906 29.0426 5.61797 28.6816 5.02695 28.108C4.4293 27.5279 4.06406 26.9801 3.75859 26.2131C3.52617 25.633 3.24727 24.7564 3.17422 23.1516C3.09453 21.4113 3.07461 20.8893 3.07461 16.4871C3.07461 12.0785 3.09453 11.5564 3.17422 9.82266C3.24727 8.21133 3.52617 7.34121 3.75859 6.76113C4.06406 5.99414 4.43594 5.43984 5.02695 4.86621C5.62461 4.28613 6.18906 3.93164 6.9793 3.63516C7.57695 3.40957 8.48008 3.13887 10.1336 3.06797C11.9199 2.99062 12.4578 2.97129 17 2.97129ZM17 0C12.3848 0 11.807 0.0193359 9.99414 0.0966797C8.18789 0.174023 6.94609 0.457617 5.87031 0.863672C4.74805 1.28906 3.79844 1.8498 2.85547 2.77148C1.90586 3.68672 1.32813 4.6084 0.889844 5.69121C0.471484 6.7418 0.179297 7.94062 0.0996094 9.69375C0.0199219 11.4598 0 12.0205 0 16.5C0 20.9795 0.0199219 21.5402 0.0996094 23.2998C0.179297 25.0529 0.471484 26.2582 0.889844 27.3023C1.32813 28.3916 1.90586 29.3133 2.85547 30.2285C3.79844 31.1437 4.74805 31.7109 5.86367 32.1299C6.94609 32.5359 8.18125 32.8195 9.9875 32.8969C11.8004 32.9742 12.3781 32.9936 16.9934 32.9936C21.6086 32.9936 22.1863 32.9742 23.9992 32.8969C25.8055 32.8195 27.0473 32.5359 28.123 32.1299C29.2387 31.7109 30.1883 31.1437 31.1312 30.2285C32.0742 29.3133 32.6586 28.3916 33.0902 27.3088C33.5086 26.2582 33.8008 25.0594 33.8805 23.3063C33.9602 21.5467 33.9801 20.9859 33.9801 16.5064C33.9801 12.027 33.9602 11.4662 33.8805 9.70664C33.8008 7.95352 33.5086 6.74824 33.0902 5.7041C32.6719 4.6084 32.0941 3.68672 31.1445 2.77148C30.2016 1.85625 29.252 1.28906 28.1363 0.870117C27.0539 0.464062 25.8188 0.180469 24.0125 0.103125C22.193 0.0193359 21.6152 0 17 0Z" fill="white"/>
<path d="M17 8.02441C12.1789 8.02441 8.26758 11.8207 8.26758 16.5C8.26758 21.1793 12.1789 24.9756 17 24.9756C21.8211 24.9756 25.7324 21.1793 25.7324 16.5C25.7324 11.8207 21.8211 8.02441 17 8.02441ZM17 21.9979C13.8723 21.9979 11.3355 19.5357 11.3355 16.5C11.3355 13.4643 13.8723 11.0021 17 11.0021C20.1277 11.0021 22.6645 13.4643 22.6645 16.5C22.6645 19.5357 20.1277 21.9979 17 21.9979Z" fill="white"/>
<path d="M28.1164 7.68916C28.1164 8.78487 27.2 9.66788 26.0777 9.66788C24.9488 9.66788 24.0391 8.77842 24.0391 7.68916C24.0391 6.59346 24.9555 5.71045 26.0777 5.71045C27.2 5.71045 28.1164 6.5999 28.1164 7.68916Z" fill="white"/>
</g>
<defs>
<clipPath id="clip0_328_7110">
<rect width="34" height="33" fill="white"/>
</clipPath>
</defs>
</svg>
