<svg width="33" height="33" viewBox="0 0 33 33" fill="none" xmlns="http://www.w3.org/2000/svg">
<path d="M0 33L2.31962 24.5259C0.888248 22.0454 0.136125 19.2335 0.1375 16.3501C0.141625 7.33562 7.47723 0 16.4903 0C20.8642 0.001375 24.9699 1.705 28.0582 4.796C31.1451 7.887 32.8446 11.9955 32.8432 16.3653C32.8391 25.3811 25.5034 32.7168 16.4903 32.7168C13.7541 32.7154 11.0577 32.0293 8.66936 30.7258L0 33ZM9.07085 27.7654C11.3753 29.1335 13.5753 29.953 16.4848 29.9544C23.9758 29.9544 30.0781 23.8576 30.0822 16.3625C30.0849 8.85225 24.0116 2.76375 16.4958 2.761C8.99935 2.761 2.90124 8.85775 2.89849 16.3515C2.89712 19.4109 3.79362 21.7016 5.29924 24.0982L3.92562 29.1142L9.07085 27.7654ZM24.7279 20.2524C24.6262 20.0819 24.3539 19.9801 23.9442 19.7752C23.5358 19.5704 21.527 18.5817 21.1516 18.4456C20.7776 18.3095 20.5053 18.2408 20.2317 18.6505C19.9595 19.0589 19.1757 19.9801 18.9378 20.2524C18.7 20.5246 18.4607 20.559 18.0523 20.3541C17.644 20.1493 16.3267 19.7189 14.7661 18.326C13.552 17.2425 12.7311 15.9046 12.4932 15.4949C12.2553 15.0865 12.4685 14.8651 12.672 14.6616C12.8562 14.4788 13.0803 14.1845 13.2852 13.9453C13.4928 13.7088 13.5602 13.5383 13.6977 13.2646C13.8338 12.9924 13.7665 12.7531 13.6633 12.5483C13.5602 12.3448 12.7435 10.3331 12.4038 9.515C12.0711 8.71888 11.7342 8.82612 11.484 8.81375L10.7002 8.8C10.428 8.8 9.98523 8.90175 9.61123 9.3115C9.23723 9.72125 8.18123 10.7085 8.18123 12.7201C8.18123 14.7318 9.6456 16.6746 9.8491 16.9469C10.054 17.2191 12.7297 21.3469 16.8286 23.1165C17.8035 23.5373 18.5652 23.7889 19.1578 23.9772C20.1368 24.288 21.0278 24.244 21.7318 24.1395C22.5169 24.0226 24.1491 23.1509 24.4901 22.1966C24.8311 21.241 24.8311 20.4229 24.7279 20.2524Z" fill="white"/>
</svg>
